<mxfile host="app.diagrams.net" modified="2022-04-22T02:09:01.703Z" agent="5.0 (Windows NT 10.0; Win64; x64) AppleWebKit/537.36 (KHTML, like Gecko) Chrome/100.0.4896.127 Safari/537.36" etag="RnMZoKYGQ4jqquK3yglc" version="17.4.6" type="github">
  <diagram id="0AbyXbpl1AoOHzvugHHO" name="Page-1">
    <mxGraphModel dx="1718" dy="935" grid="1" gridSize="10" guides="1" tooltips="1" connect="1" arrows="1" fold="1" page="1" pageScale="1" pageWidth="1100" pageHeight="1700" math="0" shadow="0">
      <root>
        <mxCell id="0" />
        <mxCell id="1" parent="0" />
        <mxCell id="rV3qXJ5eg_Qng-XEDKfc-6" style="edgeStyle=orthogonalEdgeStyle;rounded=0;orthogonalLoop=1;jettySize=auto;html=1;exitX=1;exitY=0.5;exitDx=0;exitDy=0;entryX=0;entryY=0.5;entryDx=0;entryDy=0;endArrow=none;endFill=0;" parent="1" source="rV3qXJ5eg_Qng-XEDKfc-1" target="rV3qXJ5eg_Qng-XEDKfc-3" edge="1">
          <mxGeometry relative="1" as="geometry" />
        </mxCell>
        <mxCell id="rV3qXJ5eg_Qng-XEDKfc-1" value="User" style="rounded=0;whiteSpace=wrap;html=1;" parent="1" vertex="1">
          <mxGeometry x="220" y="220" width="120" height="60" as="geometry" />
        </mxCell>
        <mxCell id="rV3qXJ5eg_Qng-XEDKfc-5" style="edgeStyle=orthogonalEdgeStyle;rounded=0;orthogonalLoop=1;jettySize=auto;html=1;exitX=0;exitY=0.5;exitDx=0;exitDy=0;entryX=1;entryY=0.5;entryDx=0;entryDy=0;endArrow=none;endFill=0;" parent="1" source="rV3qXJ5eg_Qng-XEDKfc-2" target="rV3qXJ5eg_Qng-XEDKfc-3" edge="1">
          <mxGeometry relative="1" as="geometry" />
        </mxCell>
        <mxCell id="rV3qXJ5eg_Qng-XEDKfc-2" value="Products" style="rounded=0;whiteSpace=wrap;html=1;" parent="1" vertex="1">
          <mxGeometry x="560" y="220" width="130" height="60" as="geometry" />
        </mxCell>
        <mxCell id="rV3qXJ5eg_Qng-XEDKfc-49" style="edgeStyle=orthogonalEdgeStyle;rounded=0;orthogonalLoop=1;jettySize=auto;html=1;exitX=0.5;exitY=1;exitDx=0;exitDy=0;entryX=0.5;entryY=0;entryDx=0;entryDy=0;endArrow=none;endFill=0;" parent="1" source="rV3qXJ5eg_Qng-XEDKfc-3" target="rV3qXJ5eg_Qng-XEDKfc-48" edge="1">
          <mxGeometry relative="1" as="geometry" />
        </mxCell>
        <mxCell id="rV3qXJ5eg_Qng-XEDKfc-3" value="Buys" style="rhombus;whiteSpace=wrap;html=1;" parent="1" vertex="1">
          <mxGeometry x="400" y="210" width="80" height="80" as="geometry" />
        </mxCell>
        <mxCell id="rV3qXJ5eg_Qng-XEDKfc-63" style="edgeStyle=orthogonalEdgeStyle;rounded=0;orthogonalLoop=1;jettySize=auto;html=1;exitX=0.5;exitY=1;exitDx=0;exitDy=0;entryX=0.831;entryY=0.029;entryDx=0;entryDy=0;entryPerimeter=0;endArrow=none;endFill=0;" parent="1" source="rV3qXJ5eg_Qng-XEDKfc-8" target="rV3qXJ5eg_Qng-XEDKfc-2" edge="1">
          <mxGeometry relative="1" as="geometry" />
        </mxCell>
        <mxCell id="rV3qXJ5eg_Qng-XEDKfc-8" value="QTY" style="ellipse;whiteSpace=wrap;html=1;" parent="1" vertex="1">
          <mxGeometry x="630" y="150" width="70" height="40" as="geometry" />
        </mxCell>
        <mxCell id="rV3qXJ5eg_Qng-XEDKfc-64" style="edgeStyle=orthogonalEdgeStyle;rounded=0;orthogonalLoop=1;jettySize=auto;html=1;exitX=0.5;exitY=1;exitDx=0;exitDy=0;entryX=0.043;entryY=0.013;entryDx=0;entryDy=0;entryPerimeter=0;endArrow=none;endFill=0;" parent="1" source="rV3qXJ5eg_Qng-XEDKfc-9" target="rV3qXJ5eg_Qng-XEDKfc-2" edge="1">
          <mxGeometry relative="1" as="geometry" />
        </mxCell>
        <mxCell id="rV3qXJ5eg_Qng-XEDKfc-9" value="&lt;u&gt;Part #&lt;/u&gt;" style="ellipse;whiteSpace=wrap;html=1;" parent="1" vertex="1">
          <mxGeometry x="530" y="150" width="70" height="40" as="geometry" />
        </mxCell>
        <mxCell id="rV3qXJ5eg_Qng-XEDKfc-62" style="edgeStyle=orthogonalEdgeStyle;rounded=0;orthogonalLoop=1;jettySize=auto;html=1;exitX=0;exitY=1;exitDx=0;exitDy=0;entryX=1.01;entryY=0.052;entryDx=0;entryDy=0;entryPerimeter=0;endArrow=none;endFill=0;" parent="1" source="rV3qXJ5eg_Qng-XEDKfc-10" target="rV3qXJ5eg_Qng-XEDKfc-2" edge="1">
          <mxGeometry relative="1" as="geometry" />
        </mxCell>
        <mxCell id="rV3qXJ5eg_Qng-XEDKfc-10" value="Name" style="ellipse;whiteSpace=wrap;html=1;" parent="1" vertex="1">
          <mxGeometry x="710" y="170" width="70" height="40" as="geometry" />
        </mxCell>
        <mxCell id="rV3qXJ5eg_Qng-XEDKfc-61" style="edgeStyle=orthogonalEdgeStyle;rounded=0;orthogonalLoop=1;jettySize=auto;html=1;exitX=0;exitY=0.5;exitDx=0;exitDy=0;entryX=1;entryY=0.5;entryDx=0;entryDy=0;endArrow=none;endFill=0;" parent="1" source="rV3qXJ5eg_Qng-XEDKfc-11" target="rV3qXJ5eg_Qng-XEDKfc-2" edge="1">
          <mxGeometry relative="1" as="geometry" />
        </mxCell>
        <mxCell id="rV3qXJ5eg_Qng-XEDKfc-11" value="Description&lt;br&gt;" style="ellipse;whiteSpace=wrap;html=1;" parent="1" vertex="1">
          <mxGeometry x="710" y="230" width="70" height="40" as="geometry" />
        </mxCell>
        <mxCell id="rV3qXJ5eg_Qng-XEDKfc-60" style="edgeStyle=orthogonalEdgeStyle;rounded=0;orthogonalLoop=1;jettySize=auto;html=1;exitX=0;exitY=0;exitDx=0;exitDy=0;entryX=0.944;entryY=0.997;entryDx=0;entryDy=0;entryPerimeter=0;endArrow=none;endFill=0;" parent="1" source="rV3qXJ5eg_Qng-XEDKfc-13" target="rV3qXJ5eg_Qng-XEDKfc-2" edge="1">
          <mxGeometry relative="1" as="geometry" />
        </mxCell>
        <mxCell id="rV3qXJ5eg_Qng-XEDKfc-13" value="Product&lt;br&gt;Details" style="ellipse;whiteSpace=wrap;html=1;" parent="1" vertex="1">
          <mxGeometry x="690" y="290" width="70" height="40" as="geometry" />
        </mxCell>
        <mxCell id="rV3qXJ5eg_Qng-XEDKfc-59" style="edgeStyle=orthogonalEdgeStyle;rounded=0;orthogonalLoop=1;jettySize=auto;html=1;exitX=0.5;exitY=0;exitDx=0;exitDy=0;entryX=0.479;entryY=0.981;entryDx=0;entryDy=0;entryPerimeter=0;endArrow=none;endFill=0;" parent="1" source="rV3qXJ5eg_Qng-XEDKfc-14" target="rV3qXJ5eg_Qng-XEDKfc-2" edge="1">
          <mxGeometry relative="1" as="geometry" />
        </mxCell>
        <mxCell id="rV3qXJ5eg_Qng-XEDKfc-14" value="Price" style="ellipse;whiteSpace=wrap;html=1;" parent="1" vertex="1">
          <mxGeometry x="590" y="300" width="70" height="40" as="geometry" />
        </mxCell>
        <mxCell id="rV3qXJ5eg_Qng-XEDKfc-58" style="edgeStyle=orthogonalEdgeStyle;rounded=0;orthogonalLoop=1;jettySize=auto;html=1;exitX=1;exitY=0;exitDx=0;exitDy=0;entryX=0.04;entryY=1.021;entryDx=0;entryDy=0;entryPerimeter=0;endArrow=none;endFill=0;" parent="1" source="rV3qXJ5eg_Qng-XEDKfc-15" target="rV3qXJ5eg_Qng-XEDKfc-2" edge="1">
          <mxGeometry relative="1" as="geometry" />
        </mxCell>
        <mxCell id="rV3qXJ5eg_Qng-XEDKfc-15" value="Customization&lt;br&gt;" style="ellipse;whiteSpace=wrap;html=1;" parent="1" vertex="1">
          <mxGeometry x="480" y="285" width="80" height="50" as="geometry" />
        </mxCell>
        <mxCell id="rV3qXJ5eg_Qng-XEDKfc-24" style="edgeStyle=orthogonalEdgeStyle;rounded=0;orthogonalLoop=1;jettySize=auto;html=1;exitX=1;exitY=0.5;exitDx=0;exitDy=0;entryX=0;entryY=0.5;entryDx=0;entryDy=0;endArrow=none;endFill=0;" parent="1" source="rV3qXJ5eg_Qng-XEDKfc-23" target="rV3qXJ5eg_Qng-XEDKfc-1" edge="1">
          <mxGeometry relative="1" as="geometry" />
        </mxCell>
        <mxCell id="rV3qXJ5eg_Qng-XEDKfc-23" value="Order history" style="ellipse;whiteSpace=wrap;html=1;" parent="1" vertex="1">
          <mxGeometry x="110" y="225" width="80" height="50" as="geometry" />
        </mxCell>
        <mxCell id="rV3qXJ5eg_Qng-XEDKfc-44" style="edgeStyle=orthogonalEdgeStyle;rounded=0;orthogonalLoop=1;jettySize=auto;html=1;exitX=0.5;exitY=1;exitDx=0;exitDy=0;entryX=0.115;entryY=-0.003;entryDx=0;entryDy=0;entryPerimeter=0;endArrow=none;endFill=0;" parent="1" source="rV3qXJ5eg_Qng-XEDKfc-34" target="rV3qXJ5eg_Qng-XEDKfc-1" edge="1">
          <mxGeometry relative="1" as="geometry" />
        </mxCell>
        <mxCell id="rV3qXJ5eg_Qng-XEDKfc-34" value="&lt;u&gt;UserID&lt;/u&gt;" style="ellipse;whiteSpace=wrap;html=1;" parent="1" vertex="1">
          <mxGeometry x="205" y="165" width="60" height="35" as="geometry" />
        </mxCell>
        <mxCell id="rV3qXJ5eg_Qng-XEDKfc-43" style="edgeStyle=orthogonalEdgeStyle;rounded=0;orthogonalLoop=1;jettySize=auto;html=1;exitX=0.5;exitY=1;exitDx=0;exitDy=0;endArrow=none;endFill=0;" parent="1" source="rV3qXJ5eg_Qng-XEDKfc-38" target="rV3qXJ5eg_Qng-XEDKfc-1" edge="1">
          <mxGeometry relative="1" as="geometry" />
        </mxCell>
        <mxCell id="rV3qXJ5eg_Qng-XEDKfc-38" value="Name" style="ellipse;whiteSpace=wrap;html=1;" parent="1" vertex="1">
          <mxGeometry x="300" y="165" width="60" height="35" as="geometry" />
        </mxCell>
        <mxCell id="rV3qXJ5eg_Qng-XEDKfc-42" style="edgeStyle=orthogonalEdgeStyle;rounded=0;orthogonalLoop=1;jettySize=auto;html=1;exitX=0.5;exitY=0;exitDx=0;exitDy=0;entryX=0.875;entryY=1.03;entryDx=0;entryDy=0;entryPerimeter=0;endArrow=none;endFill=0;" parent="1" source="rV3qXJ5eg_Qng-XEDKfc-39" target="rV3qXJ5eg_Qng-XEDKfc-1" edge="1">
          <mxGeometry relative="1" as="geometry" />
        </mxCell>
        <mxCell id="rV3qXJ5eg_Qng-XEDKfc-39" value="Contact Info" style="ellipse;whiteSpace=wrap;html=1;" parent="1" vertex="1">
          <mxGeometry x="300" y="300" width="70" height="40" as="geometry" />
        </mxCell>
        <mxCell id="rV3qXJ5eg_Qng-XEDKfc-41" style="edgeStyle=orthogonalEdgeStyle;rounded=0;orthogonalLoop=1;jettySize=auto;html=1;exitX=0.5;exitY=0;exitDx=0;exitDy=0;entryX=0.185;entryY=1.03;entryDx=0;entryDy=0;entryPerimeter=0;endArrow=none;endFill=0;" parent="1" source="rV3qXJ5eg_Qng-XEDKfc-40" target="rV3qXJ5eg_Qng-XEDKfc-1" edge="1">
          <mxGeometry relative="1" as="geometry" />
        </mxCell>
        <mxCell id="rV3qXJ5eg_Qng-XEDKfc-40" value="Internal notes&lt;br&gt;" style="ellipse;whiteSpace=wrap;html=1;" parent="1" vertex="1">
          <mxGeometry x="200" y="300" width="70" height="40" as="geometry" />
        </mxCell>
        <mxCell id="rV3qXJ5eg_Qng-XEDKfc-48" value="Orders" style="rounded=0;whiteSpace=wrap;html=1;" parent="1" vertex="1">
          <mxGeometry x="380" y="385" width="120" height="60" as="geometry" />
        </mxCell>
        <mxCell id="rV3qXJ5eg_Qng-XEDKfc-51" style="edgeStyle=orthogonalEdgeStyle;rounded=0;orthogonalLoop=1;jettySize=auto;html=1;exitX=1;exitY=0.5;exitDx=0;exitDy=0;endArrow=none;endFill=0;" parent="1" target="rV3qXJ5eg_Qng-XEDKfc-48" edge="1">
          <mxGeometry relative="1" as="geometry">
            <mxPoint x="330.0000000000032" y="415" as="sourcePoint" />
          </mxGeometry>
        </mxCell>
        <mxCell id="rV3qXJ5eg_Qng-XEDKfc-50" value="&lt;u&gt;Order Number&lt;/u&gt;" style="ellipse;whiteSpace=wrap;html=1;" parent="1" vertex="1">
          <mxGeometry x="250" y="385" width="80" height="50" as="geometry" />
        </mxCell>
        <mxCell id="rV3qXJ5eg_Qng-XEDKfc-53" style="edgeStyle=orthogonalEdgeStyle;rounded=0;orthogonalLoop=1;jettySize=auto;html=1;exitX=0;exitY=0.5;exitDx=0;exitDy=0;entryX=1;entryY=0.5;entryDx=0;entryDy=0;endArrow=none;endFill=0;" parent="1" source="rV3qXJ5eg_Qng-XEDKfc-52" target="rV3qXJ5eg_Qng-XEDKfc-48" edge="1">
          <mxGeometry relative="1" as="geometry" />
        </mxCell>
        <mxCell id="rV3qXJ5eg_Qng-XEDKfc-52" value="Order status&lt;br&gt;" style="ellipse;whiteSpace=wrap;html=1;" parent="1" vertex="1">
          <mxGeometry x="550" y="390" width="80" height="50" as="geometry" />
        </mxCell>
        <mxCell id="rV3qXJ5eg_Qng-XEDKfc-55" style="edgeStyle=orthogonalEdgeStyle;rounded=0;orthogonalLoop=1;jettySize=auto;html=1;exitX=0.5;exitY=0;exitDx=0;exitDy=0;entryX=0.5;entryY=1;entryDx=0;entryDy=0;endArrow=none;endFill=0;" parent="1" source="rV3qXJ5eg_Qng-XEDKfc-54" target="rV3qXJ5eg_Qng-XEDKfc-48" edge="1">
          <mxGeometry relative="1" as="geometry" />
        </mxCell>
        <mxCell id="rV3qXJ5eg_Qng-XEDKfc-54" value="Order date&lt;br&gt;" style="ellipse;whiteSpace=wrap;html=1;" parent="1" vertex="1">
          <mxGeometry x="400" y="490" width="80" height="50" as="geometry" />
        </mxCell>
        <mxCell id="rV3qXJ5eg_Qng-XEDKfc-57" style="edgeStyle=orthogonalEdgeStyle;rounded=0;orthogonalLoop=1;jettySize=auto;html=1;exitX=1;exitY=0;exitDx=0;exitDy=0;entryX=0;entryY=1;entryDx=0;entryDy=0;endArrow=none;endFill=0;" parent="1" source="rV3qXJ5eg_Qng-XEDKfc-56" target="rV3qXJ5eg_Qng-XEDKfc-48" edge="1">
          <mxGeometry relative="1" as="geometry" />
        </mxCell>
        <mxCell id="rV3qXJ5eg_Qng-XEDKfc-56" value="Notes" style="ellipse;whiteSpace=wrap;html=1;" parent="1" vertex="1">
          <mxGeometry x="290" y="460" width="80" height="50" as="geometry" />
        </mxCell>
        <mxCell id="xdMU3iZf9lZtiUBWE6Kj-1" value="Product" style="rounded=0;whiteSpace=wrap;html=1;" parent="1" vertex="1">
          <mxGeometry x="335" y="930" width="130" height="60" as="geometry" />
        </mxCell>
        <mxCell id="xdMU3iZf9lZtiUBWE6Kj-5" style="edgeStyle=none;rounded=0;orthogonalLoop=1;jettySize=auto;html=1;endArrow=none;endFill=0;entryX=0.5;entryY=0;entryDx=0;entryDy=0;" parent="1" source="xdMU3iZf9lZtiUBWE6Kj-2" target="xdMU3iZf9lZtiUBWE6Kj-1" edge="1">
          <mxGeometry relative="1" as="geometry" />
        </mxCell>
        <mxCell id="xdMU3iZf9lZtiUBWE6Kj-2" value="QTY on hand" style="ellipse;whiteSpace=wrap;html=1;" parent="1" vertex="1">
          <mxGeometry x="355" y="860" width="70" height="40" as="geometry" />
        </mxCell>
        <mxCell id="xdMU3iZf9lZtiUBWE6Kj-4" style="rounded=0;orthogonalLoop=1;jettySize=auto;html=1;endArrow=none;endFill=0;" parent="1" source="xdMU3iZf9lZtiUBWE6Kj-3" target="xdMU3iZf9lZtiUBWE6Kj-1" edge="1">
          <mxGeometry relative="1" as="geometry" />
        </mxCell>
        <mxCell id="xdMU3iZf9lZtiUBWE6Kj-3" value="&lt;u&gt;Part #&lt;/u&gt;" style="ellipse;whiteSpace=wrap;html=1;" parent="1" vertex="1">
          <mxGeometry x="435" y="870" width="70" height="40" as="geometry" />
        </mxCell>
        <mxCell id="xdMU3iZf9lZtiUBWE6Kj-7" style="edgeStyle=none;rounded=0;orthogonalLoop=1;jettySize=auto;html=1;endArrow=none;endFill=0;" parent="1" source="xdMU3iZf9lZtiUBWE6Kj-6" target="xdMU3iZf9lZtiUBWE6Kj-1" edge="1">
          <mxGeometry relative="1" as="geometry" />
        </mxCell>
        <mxCell id="xdMU3iZf9lZtiUBWE6Kj-6" value="Name" style="ellipse;whiteSpace=wrap;html=1;" parent="1" vertex="1">
          <mxGeometry x="275" y="870" width="70" height="40" as="geometry" />
        </mxCell>
        <mxCell id="xdMU3iZf9lZtiUBWE6Kj-9" style="edgeStyle=none;rounded=0;orthogonalLoop=1;jettySize=auto;html=1;entryX=0;entryY=0.25;entryDx=0;entryDy=0;endArrow=none;endFill=0;" parent="1" source="xdMU3iZf9lZtiUBWE6Kj-8" target="xdMU3iZf9lZtiUBWE6Kj-1" edge="1">
          <mxGeometry relative="1" as="geometry" />
        </mxCell>
        <mxCell id="xdMU3iZf9lZtiUBWE6Kj-8" value="Description&lt;br&gt;" style="ellipse;whiteSpace=wrap;html=1;" parent="1" vertex="1">
          <mxGeometry x="235" y="910" width="70" height="40" as="geometry" />
        </mxCell>
        <mxCell id="xdMU3iZf9lZtiUBWE6Kj-11" style="edgeStyle=none;rounded=0;orthogonalLoop=1;jettySize=auto;html=1;entryX=0;entryY=0.75;entryDx=0;entryDy=0;endArrow=none;endFill=0;" parent="1" source="xdMU3iZf9lZtiUBWE6Kj-10" target="xdMU3iZf9lZtiUBWE6Kj-1" edge="1">
          <mxGeometry relative="1" as="geometry" />
        </mxCell>
        <mxCell id="xdMU3iZf9lZtiUBWE6Kj-10" value="Price" style="ellipse;whiteSpace=wrap;html=1;" parent="1" vertex="1">
          <mxGeometry x="235" y="960" width="70" height="40" as="geometry" />
        </mxCell>
        <mxCell id="xdMU3iZf9lZtiUBWE6Kj-20" style="edgeStyle=none;rounded=0;orthogonalLoop=1;jettySize=auto;html=1;entryX=1;entryY=0.5;entryDx=0;entryDy=0;endArrow=none;endFill=0;" parent="1" source="xdMU3iZf9lZtiUBWE6Kj-19" target="xdMU3iZf9lZtiUBWE6Kj-1" edge="1">
          <mxGeometry relative="1" as="geometry" />
        </mxCell>
        <mxCell id="xdMU3iZf9lZtiUBWE6Kj-22" style="edgeStyle=none;rounded=0;orthogonalLoop=1;jettySize=auto;html=1;entryX=0;entryY=0.5;entryDx=0;entryDy=0;endArrow=none;endFill=0;" parent="1" source="xdMU3iZf9lZtiUBWE6Kj-19" target="xdMU3iZf9lZtiUBWE6Kj-21" edge="1">
          <mxGeometry relative="1" as="geometry" />
        </mxCell>
        <mxCell id="xdMU3iZf9lZtiUBWE6Kj-19" value="added to" style="rhombus;whiteSpace=wrap;html=1;" parent="1" vertex="1">
          <mxGeometry x="510" y="910" width="80" height="80" as="geometry" />
        </mxCell>
        <mxCell id="xdMU3iZf9lZtiUBWE6Kj-21" value="Shopping cart" style="rounded=0;whiteSpace=wrap;html=1;" parent="1" vertex="1">
          <mxGeometry x="650" y="930" width="105" height="80" as="geometry" />
        </mxCell>
        <mxCell id="xdMU3iZf9lZtiUBWE6Kj-100" style="edgeStyle=none;rounded=0;orthogonalLoop=1;jettySize=auto;html=1;entryX=0.5;entryY=0;entryDx=0;entryDy=0;endArrow=none;endFill=0;" parent="1" source="xdMU3iZf9lZtiUBWE6Kj-61" target="xdMU3iZf9lZtiUBWE6Kj-91" edge="1">
          <mxGeometry relative="1" as="geometry" />
        </mxCell>
        <mxCell id="82ZFuDDCMctr4lIdkE6s-17" style="edgeStyle=orthogonalEdgeStyle;curved=1;orthogonalLoop=1;jettySize=auto;html=1;exitX=0.5;exitY=0;exitDx=0;exitDy=0;entryX=0;entryY=0.5;entryDx=0;entryDy=0;endArrow=none;endFill=0;" edge="1" parent="1" target="xdMU3iZf9lZtiUBWE6Kj-74">
          <mxGeometry relative="1" as="geometry">
            <mxPoint x="540" y="1240" as="sourcePoint" />
            <Array as="points">
              <mxPoint x="540" y="1160" />
              <mxPoint x="500" y="1160" />
              <mxPoint x="500" y="1080" />
            </Array>
          </mxGeometry>
        </mxCell>
        <mxCell id="82ZFuDDCMctr4lIdkE6s-53" style="edgeStyle=orthogonalEdgeStyle;curved=1;orthogonalLoop=1;jettySize=auto;html=1;exitX=0.75;exitY=0;exitDx=0;exitDy=0;entryX=0.5;entryY=1;entryDx=0;entryDy=0;endArrow=none;endFill=0;" edge="1" parent="1" source="xdMU3iZf9lZtiUBWE6Kj-61" target="82ZFuDDCMctr4lIdkE6s-52">
          <mxGeometry relative="1" as="geometry" />
        </mxCell>
        <mxCell id="xdMU3iZf9lZtiUBWE6Kj-61" value="Orders" style="rounded=0;whiteSpace=wrap;html=1;" parent="1" vertex="1">
          <mxGeometry x="490" y="1240" width="120" height="60" as="geometry" />
        </mxCell>
        <mxCell id="xdMU3iZf9lZtiUBWE6Kj-63" style="edgeStyle=none;rounded=0;orthogonalLoop=1;jettySize=auto;html=1;entryX=1;entryY=0.5;entryDx=0;entryDy=0;endArrow=none;endFill=0;" parent="1" source="xdMU3iZf9lZtiUBWE6Kj-62" target="xdMU3iZf9lZtiUBWE6Kj-61" edge="1">
          <mxGeometry relative="1" as="geometry" />
        </mxCell>
        <mxCell id="xdMU3iZf9lZtiUBWE6Kj-62" value="&lt;u&gt;Order ID&lt;/u&gt;" style="ellipse;whiteSpace=wrap;html=1;" parent="1" vertex="1">
          <mxGeometry x="635" y="1260" width="70" height="40" as="geometry" />
        </mxCell>
        <mxCell id="xdMU3iZf9lZtiUBWE6Kj-65" style="edgeStyle=none;rounded=0;orthogonalLoop=1;jettySize=auto;html=1;entryX=1;entryY=0;entryDx=0;entryDy=0;endArrow=none;endFill=0;" parent="1" source="xdMU3iZf9lZtiUBWE6Kj-64" target="xdMU3iZf9lZtiUBWE6Kj-61" edge="1">
          <mxGeometry relative="1" as="geometry" />
        </mxCell>
        <mxCell id="xdMU3iZf9lZtiUBWE6Kj-64" value="Status" style="ellipse;whiteSpace=wrap;html=1;" parent="1" vertex="1">
          <mxGeometry x="660" y="1190" width="80" height="50" as="geometry" />
        </mxCell>
        <mxCell id="82ZFuDDCMctr4lIdkE6s-48" style="edgeStyle=orthogonalEdgeStyle;curved=1;orthogonalLoop=1;jettySize=auto;html=1;exitX=1;exitY=0.5;exitDx=0;exitDy=0;entryX=0;entryY=0.5;entryDx=0;entryDy=0;endArrow=none;endFill=0;" edge="1" parent="1" source="xdMU3iZf9lZtiUBWE6Kj-66" target="xdMU3iZf9lZtiUBWE6Kj-61">
          <mxGeometry relative="1" as="geometry" />
        </mxCell>
        <mxCell id="xdMU3iZf9lZtiUBWE6Kj-66" value="Date" style="ellipse;whiteSpace=wrap;html=1;" parent="1" vertex="1">
          <mxGeometry x="390" y="1245" width="80" height="50" as="geometry" />
        </mxCell>
        <mxCell id="xdMU3iZf9lZtiUBWE6Kj-69" style="edgeStyle=none;rounded=0;orthogonalLoop=1;jettySize=auto;html=1;entryX=0.25;entryY=0;entryDx=0;entryDy=0;endArrow=none;endFill=0;" parent="1" source="xdMU3iZf9lZtiUBWE6Kj-68" target="xdMU3iZf9lZtiUBWE6Kj-61" edge="1">
          <mxGeometry relative="1" as="geometry" />
        </mxCell>
        <mxCell id="xdMU3iZf9lZtiUBWE6Kj-68" value="Notes" style="ellipse;whiteSpace=wrap;html=1;" parent="1" vertex="1">
          <mxGeometry x="430" y="1170" width="80" height="50" as="geometry" />
        </mxCell>
        <mxCell id="xdMU3iZf9lZtiUBWE6Kj-71" style="edgeStyle=none;rounded=0;orthogonalLoop=1;jettySize=auto;html=1;entryX=1;entryY=1;entryDx=0;entryDy=0;endArrow=none;endFill=0;exitX=0.075;exitY=0.22;exitDx=0;exitDy=0;exitPerimeter=0;" parent="1" source="xdMU3iZf9lZtiUBWE6Kj-70" target="xdMU3iZf9lZtiUBWE6Kj-61" edge="1">
          <mxGeometry relative="1" as="geometry">
            <mxPoint x="640.7577892702989" y="1317.9420437410076" as="sourcePoint" />
          </mxGeometry>
        </mxCell>
        <mxCell id="xdMU3iZf9lZtiUBWE6Kj-70" value="tracking #" style="ellipse;whiteSpace=wrap;html=1;" parent="1" vertex="1">
          <mxGeometry x="640" y="1320" width="80" height="50" as="geometry" />
        </mxCell>
        <mxCell id="82ZFuDDCMctr4lIdkE6s-18" style="edgeStyle=orthogonalEdgeStyle;curved=1;orthogonalLoop=1;jettySize=auto;html=1;exitX=1;exitY=0.5;exitDx=0;exitDy=0;entryX=0.67;entryY=1.01;entryDx=0;entryDy=0;entryPerimeter=0;endArrow=none;endFill=0;" edge="1" parent="1" source="xdMU3iZf9lZtiUBWE6Kj-74">
          <mxGeometry relative="1" as="geometry">
            <mxPoint x="710.3499999999999" y="1010.8000000000002" as="targetPoint" />
          </mxGeometry>
        </mxCell>
        <mxCell id="xdMU3iZf9lZtiUBWE6Kj-74" value="Generates&amp;nbsp;" style="rhombus;whiteSpace=wrap;html=1;" parent="1" vertex="1">
          <mxGeometry x="515" y="1040" width="80" height="80" as="geometry" />
        </mxCell>
        <mxCell id="xdMU3iZf9lZtiUBWE6Kj-92" style="edgeStyle=none;rounded=0;orthogonalLoop=1;jettySize=auto;html=1;endArrow=none;endFill=0;" parent="1" source="xdMU3iZf9lZtiUBWE6Kj-80" target="xdMU3iZf9lZtiUBWE6Kj-91" edge="1">
          <mxGeometry relative="1" as="geometry" />
        </mxCell>
        <mxCell id="82ZFuDDCMctr4lIdkE6s-23" style="edgeStyle=orthogonalEdgeStyle;curved=1;orthogonalLoop=1;jettySize=auto;html=1;exitX=0;exitY=0.5;exitDx=0;exitDy=0;entryX=0;entryY=0;entryDx=0;entryDy=0;endArrow=none;endFill=0;" edge="1" parent="1" source="xdMU3iZf9lZtiUBWE6Kj-80" target="xdMU3iZf9lZtiUBWE6Kj-74">
          <mxGeometry relative="1" as="geometry">
            <mxPoint x="395.0000000000002" y="1280" as="targetPoint" />
            <Array as="points">
              <mxPoint x="240" y="1595" />
              <mxPoint x="240" y="1060" />
            </Array>
          </mxGeometry>
        </mxCell>
        <mxCell id="82ZFuDDCMctr4lIdkE6s-25" style="edgeStyle=orthogonalEdgeStyle;orthogonalLoop=1;jettySize=auto;html=1;exitX=0;exitY=0;exitDx=0;exitDy=0;entryX=0;entryY=1;entryDx=0;entryDy=0;endArrow=none;endFill=0;curved=1;" edge="1" parent="1" source="xdMU3iZf9lZtiUBWE6Kj-80" target="xdMU3iZf9lZtiUBWE6Kj-19">
          <mxGeometry relative="1" as="geometry">
            <Array as="points">
              <mxPoint x="280" y="1565" />
              <mxPoint x="280" y="1190" />
              <mxPoint x="450" y="1190" />
              <mxPoint x="450" y="970" />
            </Array>
          </mxGeometry>
        </mxCell>
        <mxCell id="xdMU3iZf9lZtiUBWE6Kj-80" value="User" style="rounded=0;whiteSpace=wrap;html=1;" parent="1" vertex="1">
          <mxGeometry x="500" y="1565" width="120" height="60" as="geometry" />
        </mxCell>
        <mxCell id="xdMU3iZf9lZtiUBWE6Kj-83" style="edgeStyle=orthogonalEdgeStyle;rounded=0;orthogonalLoop=1;jettySize=auto;html=1;exitX=0.5;exitY=1;exitDx=0;exitDy=0;entryX=0.115;entryY=-0.003;entryDx=0;entryDy=0;entryPerimeter=0;endArrow=none;endFill=0;" parent="1" source="xdMU3iZf9lZtiUBWE6Kj-84" target="xdMU3iZf9lZtiUBWE6Kj-80" edge="1">
          <mxGeometry relative="1" as="geometry" />
        </mxCell>
        <mxCell id="xdMU3iZf9lZtiUBWE6Kj-84" value="&lt;u&gt;UserID&lt;/u&gt;" style="ellipse;whiteSpace=wrap;html=1;" parent="1" vertex="1">
          <mxGeometry x="485" y="1510" width="60" height="35" as="geometry" />
        </mxCell>
        <mxCell id="xdMU3iZf9lZtiUBWE6Kj-87" style="edgeStyle=orthogonalEdgeStyle;rounded=0;orthogonalLoop=1;jettySize=auto;html=1;exitX=0.5;exitY=0;exitDx=0;exitDy=0;entryX=0.875;entryY=1.03;entryDx=0;entryDy=0;entryPerimeter=0;endArrow=none;endFill=0;" parent="1" source="xdMU3iZf9lZtiUBWE6Kj-88" target="xdMU3iZf9lZtiUBWE6Kj-80" edge="1">
          <mxGeometry relative="1" as="geometry" />
        </mxCell>
        <mxCell id="xdMU3iZf9lZtiUBWE6Kj-88" value="Contact Info" style="ellipse;whiteSpace=wrap;html=1;" parent="1" vertex="1">
          <mxGeometry x="580" y="1645" width="70" height="40" as="geometry" />
        </mxCell>
        <mxCell id="xdMU3iZf9lZtiUBWE6Kj-89" style="edgeStyle=orthogonalEdgeStyle;rounded=0;orthogonalLoop=1;jettySize=auto;html=1;exitX=0.5;exitY=0;exitDx=0;exitDy=0;entryX=0.185;entryY=1.03;entryDx=0;entryDy=0;entryPerimeter=0;endArrow=none;endFill=0;" parent="1" source="xdMU3iZf9lZtiUBWE6Kj-90" target="xdMU3iZf9lZtiUBWE6Kj-80" edge="1">
          <mxGeometry relative="1" as="geometry" />
        </mxCell>
        <mxCell id="xdMU3iZf9lZtiUBWE6Kj-90" value="Internal notes&lt;br&gt;" style="ellipse;whiteSpace=wrap;html=1;" parent="1" vertex="1">
          <mxGeometry x="480" y="1645" width="70" height="40" as="geometry" />
        </mxCell>
        <mxCell id="xdMU3iZf9lZtiUBWE6Kj-91" value="has" style="rhombus;whiteSpace=wrap;html=1;" parent="1" vertex="1">
          <mxGeometry x="515" y="1410" width="80" height="80" as="geometry" />
        </mxCell>
        <mxCell id="xdMU3iZf9lZtiUBWE6Kj-116" style="edgeStyle=none;rounded=0;orthogonalLoop=1;jettySize=auto;html=1;entryX=0.5;entryY=1;entryDx=0;entryDy=0;endArrow=none;endFill=0;" parent="1" source="xdMU3iZf9lZtiUBWE6Kj-115" target="xdMU3iZf9lZtiUBWE6Kj-80" edge="1">
          <mxGeometry relative="1" as="geometry" />
        </mxCell>
        <mxCell id="xdMU3iZf9lZtiUBWE6Kj-115" value="SD" style="triangle;whiteSpace=wrap;html=1;direction=south;" parent="1" vertex="1">
          <mxGeometry x="520" y="1700" width="80" height="60" as="geometry" />
        </mxCell>
        <mxCell id="xdMU3iZf9lZtiUBWE6Kj-120" style="edgeStyle=none;rounded=0;orthogonalLoop=1;jettySize=auto;html=1;entryX=1;entryY=0.5;entryDx=0;entryDy=0;endArrow=none;endFill=0;" parent="1" source="xdMU3iZf9lZtiUBWE6Kj-119" target="xdMU3iZf9lZtiUBWE6Kj-115" edge="1">
          <mxGeometry relative="1" as="geometry" />
        </mxCell>
        <mxCell id="xdMU3iZf9lZtiUBWE6Kj-119" value="Employee" style="rounded=0;whiteSpace=wrap;html=1;" parent="1" vertex="1">
          <mxGeometry x="500" y="1780" width="120" height="60" as="geometry" />
        </mxCell>
        <mxCell id="xdMU3iZf9lZtiUBWE6Kj-126" value="" style="edgeStyle=none;rounded=0;orthogonalLoop=1;jettySize=auto;html=1;endArrow=none;endFill=0;" parent="1" source="xdMU3iZf9lZtiUBWE6Kj-125" target="xdMU3iZf9lZtiUBWE6Kj-119" edge="1">
          <mxGeometry relative="1" as="geometry" />
        </mxCell>
        <mxCell id="xdMU3iZf9lZtiUBWE6Kj-125" value="&lt;u&gt;EMPL ID&lt;/u&gt;" style="ellipse;whiteSpace=wrap;html=1;" parent="1" vertex="1">
          <mxGeometry x="465" y="1725" width="60" height="35" as="geometry" />
        </mxCell>
        <mxCell id="xdMU3iZf9lZtiUBWE6Kj-130" style="edgeStyle=none;rounded=0;orthogonalLoop=1;jettySize=auto;html=1;entryX=0.75;entryY=0;entryDx=0;entryDy=0;endArrow=none;endFill=0;" parent="1" source="xdMU3iZf9lZtiUBWE6Kj-129" target="xdMU3iZf9lZtiUBWE6Kj-119" edge="1">
          <mxGeometry relative="1" as="geometry" />
        </mxCell>
        <mxCell id="xdMU3iZf9lZtiUBWE6Kj-131" style="edgeStyle=none;rounded=0;orthogonalLoop=1;jettySize=auto;html=1;endArrow=none;endFill=0;entryX=1;entryY=1;entryDx=0;entryDy=0;" parent="1" source="xdMU3iZf9lZtiUBWE6Kj-129" target="xdMU3iZf9lZtiUBWE6Kj-61" edge="1">
          <mxGeometry relative="1" as="geometry">
            <mxPoint x="695" y="1430" as="targetPoint" />
          </mxGeometry>
        </mxCell>
        <mxCell id="xdMU3iZf9lZtiUBWE6Kj-129" value="Ships" style="rhombus;whiteSpace=wrap;html=1;" parent="1" vertex="1">
          <mxGeometry x="675" y="1530" width="80" height="80" as="geometry" />
        </mxCell>
        <mxCell id="xdMU3iZf9lZtiUBWE6Kj-134" style="edgeStyle=none;rounded=0;orthogonalLoop=1;jettySize=auto;html=1;entryX=1;entryY=0.5;entryDx=0;entryDy=0;endArrow=none;endFill=0;" parent="1" source="xdMU3iZf9lZtiUBWE6Kj-133" target="xdMU3iZf9lZtiUBWE6Kj-119" edge="1">
          <mxGeometry relative="1" as="geometry" />
        </mxCell>
        <mxCell id="xdMU3iZf9lZtiUBWE6Kj-135" style="edgeStyle=none;orthogonalLoop=1;jettySize=auto;html=1;entryX=1;entryY=0.25;entryDx=0;entryDy=0;endArrow=none;endFill=0;curved=1;" parent="1" source="xdMU3iZf9lZtiUBWE6Kj-133" target="xdMU3iZf9lZtiUBWE6Kj-61" edge="1">
          <mxGeometry relative="1" as="geometry">
            <Array as="points">
              <mxPoint x="785" y="1670" />
              <mxPoint x="785" y="1220" />
            </Array>
          </mxGeometry>
        </mxCell>
        <mxCell id="xdMU3iZf9lZtiUBWE6Kj-133" value="views" style="rhombus;whiteSpace=wrap;html=1;" parent="1" vertex="1">
          <mxGeometry x="675" y="1630" width="80" height="80" as="geometry" />
        </mxCell>
        <mxCell id="xdMU3iZf9lZtiUBWE6Kj-141" value="(1,1)" style="text;html=1;resizable=0;autosize=1;align=center;verticalAlign=middle;points=[];fillColor=none;strokeColor=none;rounded=0;" parent="1" vertex="1">
          <mxGeometry x="510" y="510" width="40" height="20" as="geometry" />
        </mxCell>
        <mxCell id="xdMU3iZf9lZtiUBWE6Kj-142" value="(1,m)" style="text;html=1;resizable=0;autosize=1;align=center;verticalAlign=middle;points=[];fillColor=none;strokeColor=none;rounded=0;" parent="1" vertex="1">
          <mxGeometry x="510" y="540" width="40" height="20" as="geometry" />
        </mxCell>
        <mxCell id="xdMU3iZf9lZtiUBWE6Kj-147" value="(1,m)" style="text;html=1;resizable=0;autosize=1;align=center;verticalAlign=middle;points=[];fillColor=none;strokeColor=none;rounded=0;" parent="1" vertex="1">
          <mxGeometry x="470" y="920" width="40" height="20" as="geometry" />
        </mxCell>
        <mxCell id="xdMU3iZf9lZtiUBWE6Kj-148" value="(1,m)" style="text;html=1;resizable=0;autosize=1;align=center;verticalAlign=middle;points=[];fillColor=none;strokeColor=none;rounded=0;" parent="1" vertex="1">
          <mxGeometry x="590" y="940" width="40" height="20" as="geometry" />
        </mxCell>
        <mxCell id="xdMU3iZf9lZtiUBWE6Kj-149" value="(1,1)" style="text;html=1;resizable=0;autosize=1;align=center;verticalAlign=middle;points=[];fillColor=none;strokeColor=none;rounded=0;" parent="1" vertex="1">
          <mxGeometry x="585" y="1050" width="40" height="20" as="geometry" />
        </mxCell>
        <mxCell id="xdMU3iZf9lZtiUBWE6Kj-163" value="(1,m)" style="text;html=1;resizable=0;autosize=1;align=center;verticalAlign=middle;points=[];fillColor=none;strokeColor=none;rounded=0;" parent="1" vertex="1">
          <mxGeometry x="505" y="1390" width="40" height="20" as="geometry" />
        </mxCell>
        <mxCell id="xdMU3iZf9lZtiUBWE6Kj-164" value="(1,1)" style="text;html=1;resizable=0;autosize=1;align=center;verticalAlign=middle;points=[];fillColor=none;strokeColor=none;rounded=0;" parent="1" vertex="1">
          <mxGeometry x="555" y="1490" width="40" height="20" as="geometry" />
        </mxCell>
        <mxCell id="xdMU3iZf9lZtiUBWE6Kj-165" value="(1,1)" style="text;html=1;resizable=0;autosize=1;align=center;verticalAlign=middle;points=[];fillColor=none;strokeColor=none;rounded=0;" parent="1" vertex="1">
          <mxGeometry x="645" y="1600" width="40" height="20" as="geometry" />
        </mxCell>
        <mxCell id="xdMU3iZf9lZtiUBWE6Kj-166" value="(1,1)" style="text;html=1;resizable=0;autosize=1;align=center;verticalAlign=middle;points=[];fillColor=none;strokeColor=none;rounded=0;" parent="1" vertex="1">
          <mxGeometry x="650" y="1510" width="40" height="20" as="geometry" />
        </mxCell>
        <mxCell id="xdMU3iZf9lZtiUBWE6Kj-167" value="(1,m)" style="text;html=1;resizable=0;autosize=1;align=center;verticalAlign=middle;points=[];fillColor=none;strokeColor=none;rounded=0;" parent="1" vertex="1">
          <mxGeometry x="675" y="1725" width="40" height="20" as="geometry" />
        </mxCell>
        <mxCell id="xdMU3iZf9lZtiUBWE6Kj-168" value="(1,m)" style="text;html=1;resizable=0;autosize=1;align=center;verticalAlign=middle;points=[];fillColor=none;strokeColor=none;rounded=0;" parent="1" vertex="1">
          <mxGeometry x="745" y="1640" width="40" height="20" as="geometry" />
        </mxCell>
        <mxCell id="xdMU3iZf9lZtiUBWE6Kj-169" value="(1,1)" style="text;html=1;resizable=0;autosize=1;align=center;verticalAlign=middle;points=[];fillColor=none;strokeColor=none;rounded=0;" parent="1" vertex="1">
          <mxGeometry x="465" y="1090" width="40" height="20" as="geometry" />
        </mxCell>
        <mxCell id="dTRodnRZGqjA2vhVQAJh-1" value="(1,1)" style="text;html=1;resizable=0;autosize=1;align=center;verticalAlign=middle;points=[];fillColor=none;strokeColor=none;rounded=0;" parent="1" vertex="1">
          <mxGeometry x="510" y="1040" width="40" height="20" as="geometry" />
        </mxCell>
        <mxCell id="82ZFuDDCMctr4lIdkE6s-7" style="edgeStyle=orthogonalEdgeStyle;rounded=0;orthogonalLoop=1;jettySize=auto;html=1;exitX=0.5;exitY=0;exitDx=0;exitDy=0;entryX=0.286;entryY=1.003;entryDx=0;entryDy=0;entryPerimeter=0;endArrow=none;endFill=0;" edge="1" parent="1" source="82ZFuDDCMctr4lIdkE6s-6" target="xdMU3iZf9lZtiUBWE6Kj-1">
          <mxGeometry relative="1" as="geometry" />
        </mxCell>
        <mxCell id="82ZFuDDCMctr4lIdkE6s-6" value="Customization&lt;br&gt;" style="ellipse;whiteSpace=wrap;html=1;" vertex="1" parent="1">
          <mxGeometry x="305" y="1020" width="80" height="50" as="geometry" />
        </mxCell>
        <mxCell id="82ZFuDDCMctr4lIdkE6s-13" style="edgeStyle=orthogonalEdgeStyle;curved=1;orthogonalLoop=1;jettySize=auto;html=1;exitX=0.5;exitY=1;exitDx=0;exitDy=0;entryX=0.474;entryY=0.013;entryDx=0;entryDy=0;entryPerimeter=0;endArrow=none;endFill=0;" edge="1" parent="1" source="82ZFuDDCMctr4lIdkE6s-11" target="xdMU3iZf9lZtiUBWE6Kj-21">
          <mxGeometry relative="1" as="geometry" />
        </mxCell>
        <mxCell id="82ZFuDDCMctr4lIdkE6s-11" value="Cart ID&lt;br&gt;" style="ellipse;whiteSpace=wrap;html=1;fontStyle=4" vertex="1" parent="1">
          <mxGeometry x="660" y="865" width="80" height="50" as="geometry" />
        </mxCell>
        <mxCell id="82ZFuDDCMctr4lIdkE6s-26" value="(1,1)" style="text;html=1;resizable=0;autosize=1;align=center;verticalAlign=middle;points=[];fillColor=none;strokeColor=none;rounded=0;" vertex="1" parent="1">
          <mxGeometry x="485" y="980" width="40" height="20" as="geometry" />
        </mxCell>
        <mxCell id="82ZFuDDCMctr4lIdkE6s-34" style="edgeStyle=orthogonalEdgeStyle;curved=1;orthogonalLoop=1;jettySize=auto;html=1;exitX=0;exitY=0;exitDx=0;exitDy=0;entryX=1;entryY=1;entryDx=0;entryDy=0;endArrow=none;endFill=0;" edge="1" parent="1" source="82ZFuDDCMctr4lIdkE6s-33" target="xdMU3iZf9lZtiUBWE6Kj-74">
          <mxGeometry relative="1" as="geometry" />
        </mxCell>
        <mxCell id="82ZFuDDCMctr4lIdkE6s-38" style="edgeStyle=orthogonalEdgeStyle;curved=1;orthogonalLoop=1;jettySize=auto;html=1;exitX=1;exitY=0.5;exitDx=0;exitDy=0;endArrow=none;endFill=0;" edge="1" parent="1" source="82ZFuDDCMctr4lIdkE6s-33" target="82ZFuDDCMctr4lIdkE6s-36">
          <mxGeometry relative="1" as="geometry" />
        </mxCell>
        <mxCell id="82ZFuDDCMctr4lIdkE6s-40" style="edgeStyle=orthogonalEdgeStyle;curved=1;orthogonalLoop=1;jettySize=auto;html=1;exitX=1;exitY=1;exitDx=0;exitDy=0;endArrow=none;endFill=0;" edge="1" parent="1" source="82ZFuDDCMctr4lIdkE6s-33" target="82ZFuDDCMctr4lIdkE6s-41">
          <mxGeometry relative="1" as="geometry">
            <mxPoint x="910" y="1229.9999999999998" as="targetPoint" />
          </mxGeometry>
        </mxCell>
        <mxCell id="82ZFuDDCMctr4lIdkE6s-33" value="Payment" style="rounded=0;whiteSpace=wrap;html=1;" vertex="1" parent="1">
          <mxGeometry x="730" y="1130" width="120" height="60" as="geometry" />
        </mxCell>
        <mxCell id="82ZFuDDCMctr4lIdkE6s-36" value="CC Info" style="ellipse;whiteSpace=wrap;html=1;" vertex="1" parent="1">
          <mxGeometry x="890" y="1140" width="80" height="50" as="geometry" />
        </mxCell>
        <mxCell id="82ZFuDDCMctr4lIdkE6s-39" value="(1,1)" style="text;html=1;resizable=0;autosize=1;align=center;verticalAlign=middle;points=[];fillColor=none;strokeColor=none;rounded=0;" vertex="1" parent="1">
          <mxGeometry x="575" y="1100" width="40" height="20" as="geometry" />
        </mxCell>
        <mxCell id="82ZFuDDCMctr4lIdkE6s-41" value="Payment amount" style="ellipse;whiteSpace=wrap;html=1;" vertex="1" parent="1">
          <mxGeometry x="890" y="1245" width="80" height="50" as="geometry" />
        </mxCell>
        <mxCell id="82ZFuDDCMctr4lIdkE6s-44" style="edgeStyle=orthogonalEdgeStyle;curved=1;orthogonalLoop=1;jettySize=auto;html=1;exitX=0.5;exitY=0;exitDx=0;exitDy=0;entryX=0.716;entryY=1.037;entryDx=0;entryDy=0;entryPerimeter=0;endArrow=none;endFill=0;" edge="1" parent="1" source="82ZFuDDCMctr4lIdkE6s-43" target="82ZFuDDCMctr4lIdkE6s-33">
          <mxGeometry relative="1" as="geometry" />
        </mxCell>
        <mxCell id="82ZFuDDCMctr4lIdkE6s-43" value="&lt;u&gt;Payment ID&lt;/u&gt;" style="ellipse;whiteSpace=wrap;html=1;" vertex="1" parent="1">
          <mxGeometry x="780" y="1230" width="80" height="50" as="geometry" />
        </mxCell>
        <mxCell id="82ZFuDDCMctr4lIdkE6s-47" style="edgeStyle=orthogonalEdgeStyle;curved=1;orthogonalLoop=1;jettySize=auto;html=1;exitX=0;exitY=0.5;exitDx=0;exitDy=0;entryX=1.048;entryY=0.377;entryDx=0;entryDy=0;entryPerimeter=0;endArrow=none;endFill=0;" edge="1" parent="1" source="82ZFuDDCMctr4lIdkE6s-46" target="xdMU3iZf9lZtiUBWE6Kj-21">
          <mxGeometry relative="1" as="geometry" />
        </mxCell>
        <mxCell id="82ZFuDDCMctr4lIdkE6s-46" value="QTY requested" style="ellipse;whiteSpace=wrap;html=1;" vertex="1" parent="1">
          <mxGeometry x="800" y="930" width="70" height="40" as="geometry" />
        </mxCell>
        <mxCell id="82ZFuDDCMctr4lIdkE6s-50" style="edgeStyle=orthogonalEdgeStyle;curved=1;orthogonalLoop=1;jettySize=auto;html=1;exitX=1;exitY=0;exitDx=0;exitDy=0;endArrow=none;endFill=0;" edge="1" parent="1" source="82ZFuDDCMctr4lIdkE6s-49" target="xdMU3iZf9lZtiUBWE6Kj-61">
          <mxGeometry relative="1" as="geometry" />
        </mxCell>
        <mxCell id="82ZFuDDCMctr4lIdkE6s-49" value="Price at time of order" style="ellipse;whiteSpace=wrap;html=1;" vertex="1" parent="1">
          <mxGeometry x="400" y="1320" width="80" height="50" as="geometry" />
        </mxCell>
        <mxCell id="82ZFuDDCMctr4lIdkE6s-52" value="QTY ordered" style="ellipse;whiteSpace=wrap;html=1;" vertex="1" parent="1">
          <mxGeometry x="550" y="1170" width="80" height="50" as="geometry" />
        </mxCell>
      </root>
    </mxGraphModel>
  </diagram>
</mxfile>
